<?xml version="1.0" encoding="utf-8"?>
<!-- Generator: Adobe Illustrator 23.0.2, SVG Export Plug-In . SVG Version: 6.00 Build 0)  -->
<svg version="1.1" id="Layer_1" xmlns="http://www.w3.org/2000/svg" xmlns:xlink="http://www.w3.org/1999/xlink" x="0px" y="0px"
	 viewBox="0 0 386.2 382.38" style="enable-background:new 0 0 386.2 382.38;" xml:space="preserve">
<style type="text/css">
	.st0{fill:#F08020;}
	.st1{fill:#FFFFFF;}
	.st2{fill:#002D74;}
	.st3{fill:#00AEEF;}
	.st4{fill:#FFD100;}
</style>
<g>
	<line class="st0" x1="348.19" y1="208.46" x2="29.95" y2="243.35"/>
	<polygon class="st0" points="348.19,208.46 29.95,243.35 20.19,171.31 348.19,135.35 	"/>
	<polygon class="st0" points="101.05,249.44 87.72,251.01 61.31,313.37 58.18,254.46 33.25,257.38 45.34,346.47 64.95,344.18 
		94.12,285.28 	"/>
	<path class="st0" d="M149.1,314.3c-0.26-0.69-0.5-1.41-0.73-2.13l-32.8,3.84l2.85-14.61l27.92-3.27c0-0.16-0.01-0.32-0.01-0.48
		c-0.03-6.9,1.08-13.61,3.25-20.04l-27.12,3.18l2.49-13.04l30.91-3.62c1.22-2.04,2.52-4.01,3.93-5.9l3.2-16.6l-57.37,6.72
		l-17.93,92.6l58.46-6.84l3.53-18.33C149.49,315.29,149.29,314.8,149.1,314.3z"/>
	<path class="st0" d="M206.91,326.99l24.36-51.03l-34.34,4.02l-3.44,18.25l14.04-1.64c-6.11,6.67-12.31,10.37-18.6,11.1
		c-4.44,0.52-7.87-0.69-10.31-3.64c-2.43-2.94-3.66-7.09-3.68-12.44c-0.02-4.16,0.59-8.14,1.83-11.94c1.24-3.8,2.92-7.16,5.05-10.09
		c2.13-2.93,4.56-5.33,7.3-7.23c2.74-1.89,5.64-3.02,8.71-3.38c3.47-0.41,6.54,0.32,9.21,2.17c2.67,1.86,4.46,4.51,5.36,7.98
		l20.28-16.52c-0.9-2.95-2.24-5.54-4.03-7.75c-1.79-2.21-3.97-4.04-6.56-5.48c-2.59-1.44-5.5-2.42-8.73-2.93
		c-3.23-0.51-6.66-0.56-10.29-0.13c-6.78,0.79-13.31,2.98-19.59,6.56c-6.28,3.58-11.88,8.15-16.78,13.69
		c-4.9,5.55-8.81,11.85-11.73,18.9c-2.92,7.06-4.36,14.45-4.33,22.18c0.02,5.78,0.85,10.82,2.48,15.13
		c1.63,4.31,3.86,7.88,6.7,10.69c2.83,2.81,6.19,4.82,10.07,6.02c3.88,1.2,8.08,1.54,12.6,1.01c3.87-0.45,7.5-1.53,10.89-3.25
		c3.38-1.71,6.85-4.22,10.39-7.53l-1.42,7.82L206.91,326.99z"/>
	<path class="st0" d="M278.54,315.15l-3.72-1.92l11.8-22.98l-6.97-62.83l-21.66,2.54l-45.77,95.86l24.09-2.82l7.8-18.63l20.58-2.41
		l0.91,17.61l18.31-2.14C282.01,316.76,280.21,316.01,278.54,315.15z M250.82,287l12.36-29.49l1.08,27.92L250.82,287z"/>
	<path class="st0" d="M313.58,315.21c-2.87,0.57-5.79,0.9-8.77,1c-2.99,0.09-5.91-0.03-8.77-0.38c-2.86-0.35-5.62-0.89-8.28-1.61
		c-2.66-0.72-5.1-1.66-7.32-2.81l12.2-23.76c0.57,0.3,1.6,0.85,3.09,1.64c1.48,0.79,3.29,1.52,5.44,2.18
		c2.14,0.66,4.52,1.15,7.15,1.46c2.62,0.31,5.33,0.19,8.12-0.37c2.63-0.52,4.26-1.33,4.88-2.41c0.62-1.09,0.88-2.2,0.78-3.36
		c-0.09-1.07-0.59-1.91-1.51-2.52c-0.92-0.61-2.1-1.11-3.55-1.49c-1.45-0.38-3.11-0.7-4.98-0.95c-1.87-0.25-3.81-0.6-5.81-1.04
		c-5.29-1.12-9.32-2.95-12.09-5.49c-2.77-2.54-4.35-6.16-4.74-10.85c-0.46-5.51,0.18-10.63,1.91-15.37
		c1.73-4.73,4.18-8.92,7.34-12.56c3.16-3.64,6.83-6.67,10.99-9.09c4.17-2.42,8.46-4.07,12.87-4.95c2.86-0.57,5.66-0.82,8.38-0.73
		c2.72,0.09,5.3,0.37,7.75,0.84c2.44,0.48,4.71,1.07,6.82,1.78c2.1,0.71,3.97,1.4,5.6,2.08l-12.06,22.6
		c-0.08-0.07-0.72-0.42-1.92-1.06c-1.19-0.64-2.72-1.28-4.59-1.91c-1.86-0.63-3.95-1.11-6.26-1.45c-2.31-0.33-4.63-0.27-6.95,0.2
		c-1.71,0.34-3.12,1.04-4.25,2.1c-1.13,1.06-1.62,2.5-1.47,4.31c0.16,1.89,1.4,3.11,3.73,3.65c2.33,0.54,5.41,1.14,9.24,1.79
		c2.88,0.6,5.52,1.28,7.91,2.06c2.38,0.78,4.48,1.83,6.28,3.14c1.8,1.31,3.24,2.99,4.31,5.03c1.07,2.04,1.74,4.59,1.99,7.63
		c0.52,6.25-0.15,11.72-2,16.39c-1.86,4.68-4.42,8.68-7.68,12.01c-3.27,3.33-7,6-11.2,8.01
		C321.95,312.96,317.76,314.38,313.58,315.21z"/>
	<g>
		<path class="st1" d="M64.96,228.22l4.49-48.08l19.76-2.17c1.82-0.2,3.48,0.01,5,0.62c1.52,0.62,2.83,1.5,3.94,2.65
			s2.01,2.52,2.72,4.09c0.7,1.58,1.15,3.23,1.33,4.95c0.17,1.54,0.12,3.1-0.14,4.67c-0.26,1.57-0.7,3.1-1.33,4.6
			c-0.63,1.5-1.43,2.92-2.39,4.25c-0.97,1.33-2.08,2.54-3.33,3.62l7.25,16.7l-13.94,1.53l-5.93-13.96l-3.74,0.41l-1.36,14.76
			L64.96,228.22z M86.64,199.83c0.34-0.04,0.7-0.23,1.09-0.59c0.39-0.35,0.74-0.84,1.06-1.46c0.32-0.62,0.56-1.33,0.73-2.16
			c0.17-0.82,0.2-1.7,0.1-2.62c-0.12-1.15-0.42-2.02-0.89-2.62c-0.47-0.6-0.96-0.87-1.47-0.81l-6.52,0.72l-0.94,10.29L86.64,199.83z
			"/>
		<path class="st1" d="M121.72,174.4l11.34-1.25l10.08,46.48l-12.54,1.38l-1.44-9.16l-10.77,1.18l-3.13,9.66l-12.61,1.38
			L121.72,174.4z M128.04,203.26l-2.08-14.52l-4.95,15.29L128.04,203.26z"/>
		<path class="st1" d="M164.02,217.75c-2.75,0.3-5.23,0-7.47-0.89c-2.23-0.89-4.19-2.2-5.87-3.92c-1.68-1.71-3.03-3.73-4.05-6.06
			s-1.67-4.79-1.95-7.39c-0.35-3.27-0.02-6.61,1-10.03c1.02-3.42,2.6-6.58,4.75-9.47c2.14-2.89,4.79-5.35,7.92-7.37
			c3.14-2.02,6.67-3.25,10.6-3.68c4.14-0.46,7.66,0.11,10.57,1.69c2.91,1.58,4.95,3.87,6.13,6.87l-10.08,8.21
			c-0.29-1.13-0.72-2.04-1.29-2.74s-1.22-1.23-1.97-1.59s-1.53-0.59-2.35-0.68c-0.82-0.09-1.61-0.09-2.37-0.01
			c-1.94,0.21-3.61,0.89-5,2.02c-1.39,1.14-2.52,2.51-3.37,4.12c-0.85,1.61-1.45,3.34-1.78,5.19c-0.34,1.85-0.42,3.59-0.24,5.22
			c0.14,1.28,0.42,2.49,0.84,3.63c0.42,1.14,0.97,2.11,1.66,2.9c0.68,0.8,1.5,1.4,2.44,1.81s2.02,0.55,3.25,0.41
			c0.76-0.08,1.56-0.27,2.41-0.57c0.84-0.29,1.65-0.72,2.43-1.27c0.77-0.55,1.49-1.24,2.15-2.05s1.21-1.77,1.64-2.9l9.48,5.33
			c-0.79,1.83-1.9,3.52-3.33,5.06c-1.44,1.54-3.04,2.88-4.82,4.02c-1.78,1.13-3.66,2.05-5.63,2.76
			C167.73,217.09,165.83,217.55,164.02,217.75z"/>
		<path class="st1" d="M191.4,166.75l30.03-3.3l-1.07,11.51l-17.67,1.94l-0.62,6.77l15.08-1.66l-1.02,10.7l-15.08,1.66l-0.72,7.59
			l18.24-2l-1.07,11.51l-30.6,3.36L191.4,166.75z"/>
		<path class="st1" d="M248.17,171.91l-12.1,1.33l1.07-11.51l36.49-4.01l-1.07,11.51l-12.04,1.32l-3.43,36.57l-12.35,1.36
			L248.17,171.91z"/>
		<path class="st1" d="M293.18,203.56c-2.79,0.31-5.33,0.03-7.62-0.84c-2.29-0.87-4.28-2.12-5.95-3.77
			c-1.67-1.65-3.02-3.62-4.04-5.92c-1.02-2.3-1.66-4.73-1.94-7.29c-0.39-3.58-0.02-7.12,1.1-10.64c1.12-3.52,2.79-6.72,5.02-9.6
			c2.23-2.88,4.92-5.29,8.07-7.22c3.15-1.93,6.53-3.1,10.17-3.5c2.79-0.31,5.32-0.02,7.59,0.84c2.27,0.87,4.24,2.14,5.89,3.81
			c1.66,1.67,2.99,3.65,4,5.93c1.02,2.28,1.66,4.7,1.94,7.26c0.38,3.53,0.01,7.06-1.1,10.58c-1.12,3.52-2.78,6.72-4.99,9.6
			c-2.21,2.88-4.88,5.29-8,7.25C300.19,201.99,296.81,203.17,293.18,203.56z M294.35,191.84c2.03-0.22,3.75-0.92,5.16-2.08
			s2.55-2.56,3.42-4.2c0.87-1.64,1.46-3.4,1.77-5.29c0.31-1.89,0.37-3.69,0.18-5.42c-0.13-1.24-0.4-2.39-0.79-3.47
			c-0.4-1.07-0.92-2-1.58-2.77c-0.66-0.78-1.48-1.36-2.46-1.74s-2.11-0.51-3.37-0.37c-1.99,0.22-3.68,0.9-5.1,2.03
			c-1.42,1.14-2.55,2.52-3.4,4.13c-0.85,1.61-1.44,3.36-1.77,5.25c-0.33,1.89-0.4,3.7-0.22,5.42c0.13,1.24,0.4,2.39,0.79,3.47
			c0.39,1.07,0.92,2.01,1.58,2.81c0.66,0.8,1.48,1.4,2.44,1.81C291.97,191.85,293.08,191.98,294.35,191.84z"/>
	</g>
	<g>
		<path class="st2" d="M378.49,87.28c-0.1-4.61-0.28-9.21-0.29-13.74c-0.04-12.05,0.69-24.37-0.12-36.4
			c-0.34-5.08-1.74-9.48-2.97-13.36l-0.1-0.3c-1.12-3.52-2.69-6.57-5.08-9.89c-6.76-9.36-17.11-12.71-25.17-13.41
			c-0.51-0.04-1.02-0.08-1.53-0.1c-0.5-0.02-1.01-0.03-1.51-0.05c-4.07-0.1-7.89,0.03-11.41,0.17c-4.91,0.2-31.63,1.83-35.47,2.82
			c-6.22,1.59-8.85,3.62-10.59,6.34c-1.63,2.54-1.9,6.27-1.9,7.3c0,2.13-0.02,6.2-0.16,8.81c-0.03,0.67-0.07,1.35-0.1,2.04
			l-0.69,0.03c-6.07,0.24-11.99,0.59-17.55,2.18c-4.04,1.16-6.04,3.99-7.14,6.66c-1.43-2.2-3.81-4.53-7.79-5.21
			c-0.55-0.09-1.11-0.15-1.68-0.18c-3.86-0.17-8.08,0.54-11.87,1.15c-0.43,0.07-2.3,0.44-4.16,0.96c-1.3,0.36-3.34,0.95-5.28,2.13
			c-0.64-0.24-1.31-0.43-2.02-0.56c-1.46-0.28-2.99-0.45-4.54-0.52c-4.34-0.19-8.95,0.42-14.09,1.88l-0.69,0.19
			c-3.33,0.94-5.81,3.54-6.69,6.8l-0.24-0.35c-1.53-2.22-3.83-3.79-6.41-4.38l-0.41-0.09c-0.75-0.17-1.53-0.27-2.37-0.31
			c-0.34-0.01-0.77-0.02-1.23-0.02c-0.18,0-0.34,0-0.5,0c-0.02,0-0.07,0-0.09,0c-5.65-0.19-11.68,1.07-14.21,2.06
			c-0.07,0.03-3.17,1.57-3.9,3.85c-0.91-0.95-1.76-1.46-3.18-1.72c-1.46-0.28-2.99-0.45-4.54-0.52c-4.34-0.19-8.95,0.42-14.09,1.88
			l-0.69,0.19c-3.31,0.93-5.78,3.51-6.67,6.75c-0.89-1.2-2-2.32-3.42-3.23c-1.87-1.2-4.01-1.85-6.36-1.96
			c-0.31-0.01-0.63-0.02-0.94-0.02c-0.03,0-0.06,0-0.06,0c-0.06,0-0.09,0-0.09,0c-5.65-0.19-10.54,1.11-14.46,2.16l-0.09,0.03
			l-0.69,0.18c-1.05,0.28-2.01,0.73-2.87,1.31c-0.71-0.31-1.46-0.57-2.32-0.76c-1.66-0.37-4.79-0.57-5.34-0.59
			c-0.27-0.01-0.51-0.02-0.71-0.02c-2.29-0.02-4.78,0.27-7.21,0.82l-0.14,0.02l-0.11,0.02c-2.75,0.5-4.81,0.96-6.58,1.7
			c-2.1,0.89-3.57,2.09-4.61,3.37c-1.78-1.49-3.99-2.35-6.25-2.45c-0.07,0-0.14-0.01-0.22-0.01c-0.28-0.01-2.79-0.06-3.97-0.06
			c-2.52,0.01-5.86,0.16-9.55,1.16l-0.05,0.01c-1.22,0.27-3.15,0.69-5.09,1.69c-2.62,1.34-4.52,3.41-5.59,5.86
			c-3.28-2.34-6.99-3.98-10.97-4.76c-1.4-0.28-2.89-0.45-4.41-0.52c-4.8-0.21-9.89,0.62-14.34,2.33c-0.19,0.07-0.37,0.15-0.56,0.23
			l-3.03,1.39c-0.08,0.04-0.17,0.08-0.25,0.12c-3.74,1.85-6.85,3.98-9.26,6.35c-0.02,0.02-0.05,0.05-0.07,0.07l-1.04,1.04
			c-7.38,7.33-9.25,18.65-8.6,26.1c0.03,0.36,0.05,0.73,0.08,1.1c0.1,1.62,0.22,3.61,0.78,5.85c0.35,1.43,0.73,2.64,1.2,3.8
			c1.56,3.94,4.03,6.99,6.57,9.39c-0.67,0.24-1.34,0.51-2.02,0.83c-6.07,2.82-6.4,9.1-6.54,11.79c0,0,0,0.07,0,0.09
			c-0.16,1.83-0.17,3.52-0.05,5.15c0.52,6.78,1.32,17.02,10.53,24.42c3.77,3.03,8.35,5.06,13.26,5.87c0.91,0.15,1.86,0.25,2.81,0.29
			c5.91,0.26,12.86-1.07,18.31-3.13c1.77-0.67,3.19-1.37,4.48-2.22c0.57-0.37,1.05-0.75,1.41-1.05c3.81-1.95,6-5.09,7.24-6.87
			c0.49-0.7,0.95-1.42,1.39-2.13c0.63,0.72,1.4,1.53,2.42,2.4c3.43,2.93,7.37,4.96,12.03,6.21c1.66,0.45,3.46,0.71,5.33,0.8
			c2.96,0.13,5.67-0.21,7.71-0.52c2.52-0.38,5.2-0.83,7.9-1.68c0.95-0.3,1.85-0.63,2.69-1c1.69-0.73,3-1.61,3.95-2.25
			c0.28-0.18,0.56-0.36,0.85-0.54c0.99-0.62,2.22-1.38,3.47-2.41c0.5-0.41,1.23-1.06,2.04-1.87c1.78,2.97,4.95,4.99,8.38,5.23
			l0.64,0.05c0.21,0.01,0.43,0.03,0.65,0.04c6.37,0.28,16.19-1.7,17.55-2.2l0.64-0.23c2.27-0.83,4.14-2.8,5.24-4.85
			c1.9,2.3,4.91,3.73,7.9,3.87c4.53,0.2,8.62-0.55,13.05-1.26c3.69-0.59,5.82-1.46,8.52-4.3c1.48,0.85,3.19,1.84,4.97,1.97
			c0.21,0.01,0.42,0.03,0.64,0.04c6.38,0.28,16.47-1.95,17.84-2.44l0.64-0.23c2.27-0.83,3.89-2.97,4.98-5.02
			c1.9,2.3,4.84,3.67,7.82,3.96c1.17,0.11,3.26-0.06,4.71-0.22c4.97-0.56,10.74-0.87,15.28-2.99c3.93-1.83,6.27-5.54,6.27-9.9
			c0-5.72-0.07-10.53-0.21-15.13c-0.36-11.31-0.26-22.83-0.11-34.09c0.6,1.43,1.2,2.86,1.8,4.29c1.3,3.09,2.45,5.8,3.62,8.46
			c-0.26,7.57-0.16,14.94-0.02,21.24l0,0.1c0.05,2.08,0.09,4.03-0.03,5.73c-0.08,1.17-0.07,5.36-0.01,6.49
			c0.28,5.63,4.35,11.23,12.24,11.57c1.01,0.04,1.92,0,2.52-0.03l0.25-0.01c0.62,0,1.23-0.06,1.83-0.17l0.09-0.02
			c0.98-0.18,4.91-0.57,6.8-0.9c2.03-0.08,5.31-0.26,8.25-2.36l0.36-0.25c2.24-1.6,3.69-4.1,3.99-6.9l0.05-0.44
			c0.31-2.86,0.19-5.56,0.06-8.17c-0.06-1.22-0.11-2.37-0.11-3.42c0-2.54,0.1-5.22,0.21-7.96c0.22-3.44,0.11-6.87,0-10.2
			c-0.05-1.6-0.1-3.14-0.11-4.55c0.16-0.41,0.36-0.86,0.63-1.47c0.24-0.54,0.48-1.09,0.72-1.68c0.04-0.09,0.07-0.18,0.11-0.27
			c2.02-5.31,4.07-10.54,5.97-15.31c0.01,1.58,0.03,3.17,0.05,4.74c0.08,10.04,0.12,20.23,0.11,30.28c0,2.35-0.06,4.85-0.11,7.26
			c-0.17,7.55-0.37,16.07,1.05,24.54l0.1,0.6c0.7,4.19,3.57,7.78,7.5,9.38l0.56,0.23c1.7,0.69,3.54,1.07,5.63,1.16
			c1.4,0.06,2.7-0.01,3.75-0.07c0.24-0.01,0.47-0.03,0.67-0.03c6.82,0.24,13.64-1.19,20.3-2.22c9.58-1.48,20.45-1.82,29.44-5.42
			c3.09-1.24,6.09-2.98,8.91-5.19c4.65-3.64,8.69-8.45,11.7-13.9c3.23-5.86,5.32-12.38,5.88-18.38
			C378.61,98.05,378.6,92.67,378.49,87.28z"/>
		<g>
			<g>
				<path class="st3" d="M166.55,128.93c0-0.92,0-1.84,0-2.77c0.01-2.64,0.02-5.37-0.15-8.12c-0.22-3.38-0.33-7.03-0.36-11.15
					c-0.03-4.82,0.08-9.72,0.17-14.47c0.06-2.67,0.11-5.34,0.15-8.01c0.03-2.07,0.06-4.14,0.1-6.21c0.08-4.41,0.17-8.97,0.13-13.47
					c0-0.17,0-0.6,0.01-1.21c0.01-1.5,0.02-4.01,0-6.15c-0.01-1.43-0.12-3.71-0.12-3.88c0.01-0.25-0.06-0.54-0.41-1.24
					c-0.83-1.71-2.9-2.48-3.32-2.74c-0.23-0.15-1.38-0.63-1.74-0.7c-1-0.19-2.04-0.31-3.12-0.35c-3.29-0.14-6.91,0.36-11.06,1.53
					c0,0-0.87,0.09-0.89,1.15c-0.02,1.06-0.05,4.86-0.03,7.02l0.01,2.04c0.01,2.76,0.04,5.51,0.07,8.27l0,0.1
					c0.06,5.78,0.12,11.69,0.01,17.6c-0.61-1.41-1.21-2.81-1.81-4.21c-1.19-2.8-2.43-5.7-3.71-8.51c-0.55-1.2-1.07-2.46-1.57-3.68
					c-0.7-1.7-1.42-3.46-2.27-5.17l-0.23-0.46c-0.67-1.35-1.84-4.14-1.84-4.14c-0.6-1.7-1.07-2.81-1.52-3.58c0,0-0.1-0.18-0.16-0.27
					c-0.02-0.03-0.04-0.06-0.06-0.08c-1-1.5-2.12-2.4-3.12-2.93c-0.62-0.33-1.78-0.88-2.42-0.95c-0.23-0.03-0.45-0.07-0.65-0.08
					c-0.17-0.01-0.34-0.01-0.51-0.01l-0.07,0c-0.11,0-0.21,0-0.29,0l-0.17-0.01c-4.15-0.14-7.92,0.87-11.58,1.84l-0.59,0.16
					c0,0-0.36,0.1-0.38,0.43c-0.01,0.23-0.03,0.57-0.03,0.57c-0.3,6.43-0.25,12.72-0.16,18.03c0.1,5.88,0.02,11.86-0.05,17.68
					l0,0.15c-0.09,7.55-0.13,15.22-0.11,22.81c0.01,3.85,0.04,7.69,0.08,11.41c0.02,1.9,0.04,3.81,0.07,5.71
					c0.01,0.35-0.03,0.74-0.07,1.18c-0.1,1.11-0.21,2.38,0.35,3.62l0.33,0.74l0.01,0c0.38,0.88,1.84,3.84,4.24,4.13l0.04,0.01
					c0.13,0.01,0.26,0.02,0.4,0.02c4.93,0.22,13.67-1.79,14.25-2c0.77-0.28,1.28-1.02,1.28-1.86c0-1.92,0.07-3.88,0.15-5.78
					c0.08-2.01,0.15-4.09,0.15-6.16c0-1.79-0.04-3.58-0.07-5.37c-0.04-2.21-0.08-4.5-0.06-6.73c0.01-2.05-0.04-4.11-0.09-6.12
					c-0.01-0.62-0.02-1.23-0.04-1.85c1.38,3.22,2.75,6.48,4.06,9.73c1.33,3.31,2.73,6.6,4.04,9.68c0.41,0.97,0.89,1.97,1.31,2.85
					c0.81,1.69,1.64,3.43,2.16,5.12l0.3,0.99l-0.01,0c0,0,1.5,4,4.41,4.04l0.02,0.01c0.11,0.01,0.22,0,0.32-0.01
					c0.79-0.09,1.67-0.09,2.59-0.1c0.53,0,1.06-0.01,1.59-0.02c2.13,0,4.33-0.36,6.45-0.7c1.16-0.19,2.37-0.38,3.53-0.51
					c0.06-0.01,0.13-0.02,0.19-0.03c0.75-0.16,1.68-0.72,1.89-2.55c0.12-1.04,0.04-2.41-0.05-3.73
					C166.57,129.23,166.55,129.04,166.55,128.93z"/>
				<path class="st3" d="M224.91,71.72l0.07-5.5l0.07-5.25l0.07-5.25c0.01-0.45,0.03-2.85,0.02-5.15c-0.01-1.33-0.02-2.39-0.05-3.15
					c-0.02-0.42-0.04-0.87-0.1-1.31l0.01,0c-0.09-1.97-1.55-2.41-2.99-3.42c-0.73-0.51-1.41-0.85-1.82-1.04
					c-1-0.43-2.66-0.52-3.74-0.57c-3.29-0.14-6.9,0.36-11.06,1.53c0,0-0.87,0.17-0.88,1.15c-0.02,0.99-0.06,5.9-0.03,8.76l0,0.62
					c0.01,0.83,0.01,1.66,0.02,2.49c0.01,3.17,0.07,6.44,0.12,9.66c0.07,4.66,0.14,9.41,0.11,14.1c-0.75-1.79-1.49-3.59-2.22-5.37
					c-1.4-3.44-2.85-6.99-4.35-10.31c-1.19-2.65-2.45-5.37-3.72-8.06c-0.36-0.75-0.66-1.56-0.99-2.41c-0.44-1.15-1.43-3.2-1.81-4.01
					c-0.14-0.3-0.46-0.83-0.77-1.18c-1.28-1.46-3-2.43-3.8-2.83c-0.25-0.13-0.94-0.33-0.94-0.33c-0.31-0.07-0.69-0.08-1.41-0.08
					c-0.29,0-0.6,0-0.89-0.01c-4.21-0.14-7.67,0.78-11.33,1.76c-1.13,0.33-1.3,0.92-1.13,8.37c0.01,0.47,0.02,0.82,0.02,0.96
					c-0.02,2.43-0.01,4.98,0.03,8c0.07,5.43,0.08,10.63,0.01,15.9c-0.1,7.49-0.14,15.16-0.14,22.8c0,5.2,0.03,10.48,0.06,15.59
					l0.02,3.81c0,0.06,0,0.2-0.01,0.41l0,0.1c-0.02,0.77-0.06,2.05-0.04,3.2c0.01,0.89,0.04,1.8,0.3,2.45
					c0.31,1.03,1.38,3.96,3.96,4.83c0.03,0.01,0.06,0.02,0.08,0.03c0.49,0.16,1.04,0.24,1.65,0.2c0,0,0-0.02,0-0.02
					c4.92,0.05,13.14-1.81,13.69-2.01c0.77-0.28,1.28-1.02,1.28-1.86c0-2.21,0.09-4.46,0.18-6.64c0.11-2.72,0.22-5.53,0.17-8.36
					c-0.04-1.85-0.08-3.69-0.12-5.54c-0.08-3.7-0.15-7.46-0.21-11.23c1.24,2.78,2.47,5.58,3.63,8.38c1.83,4.36,3.64,8.74,5.8,13.97
					c0.28,0.68,0.61,1.34,0.92,1.97l0.04,0.08c0.47,0.94,0.91,1.83,1.2,2.75c0,0,1.02,3.17,2.76,4.57c0.53,0.43,1.33,0.44,1.93,0.46
					c0.02,0,0.03,0.01,0.03,0.01c0.12,0.01,0.22,0,0.33-0.01c1.07-0.12,2.16-0.14,3.32-0.16c1.23-0.02,2.5-0.05,3.79-0.2
					c0.5-0.06,2.65-0.5,4.16-0.84c3.43-0.77,4.99-1.13,4.99-2.94c0-5.62-0.07-10.33-0.21-14.83
					C224.55,97.73,224.74,84.51,224.91,71.72z"/>
				<path class="st3" d="M103.09,54.7c-0.87-0.2-2.49-0.25-3.26-0.26c-1.6-0.01-3.73,0.15-5.5,0.56c-0.08,0.02-0.25,0.05-0.54,0.1
					c-4.44,0.8-5.83,1.27-5.88,2.64c-0.02,0.54-0.05,1.08-0.08,1.63l-0.02,0.43c-0.08,1.62-0.16,3.29-0.18,4.94
					c-0.03,2.88-0.08,5.76-0.12,8.65l-0.02,1.1c-0.17,11.45-0.34,23.3-0.04,35.02c0.09,3.48,0.14,7.22-0.12,10.93
					c-0.15,2.2-3.37,3.63-5.49,4.05c-0.56,0.11-1.14,0.16-1.7,0.14c-0.29-1.15-0.29-2.5-0.29-3.83c0-0.32,0-0.65,0-0.96
					c-0.05-5.72,0.06-11.56,0.16-17.21c0.17-9.01,0.35-18.33-0.14-27.53c-0.08-1.5-0.09-3.05-0.1-4.55
					c-0.01-0.94-0.01-1.88-0.03-2.82c0-0.2,0.04-0.66,0.09-1.06c0.13-1.2,0.27-2.58-0.03-3.8l0.01-0.01
					c-0.16-1.23-1.29-2.3-2.5-3.11c-0.35-0.23-1.33-1-2.36-1.56c-0.31-0.17-0.5-0.28-0.85-0.32c-0.92-0.12-3.64-0.08-6.25,0.14
					c-1.77,0.15-4.82,0.73-5.03,0.78c-1.67,0.37-4.45,0.98-4.18,3.1c0.28,2.14,0.17,4.37,0.06,6.53c0,0-0.07,1.41-0.09,2
					c-0.1,2.88-0.15,5.92-0.14,9.55c0,3.11,0.04,6.26,0.08,9.34c0.04,2.83,0.08,6.36,0.08,9.69l-0.01,5.52c0,1.9-0.05,3.9-0.09,5.51
					c-0.06,2.75-0.12,5.59-0.06,8.43l0.02,0.9c0.07,3.95,0.18,8.86,2.46,12.56c1.6,2.59,4.85,6.7,7.33,8.93
					c2.27,2.04,5.03,3.37,8.3,4.24c1.01,0.27,2.14,0.44,3.35,0.49c2.18,0.1,4.34-0.18,5.97-0.43c2.27-0.35,4.48-0.71,6.58-1.37
					c0.66-0.21,1.27-0.43,1.83-0.68c0.98-0.43,1.84-1,2.61-1.51c0.36-0.24,0.73-0.47,1.11-0.7c0.84-0.52,1.71-1.06,2.5-1.72
					c1.95-1.62,4.48-4.39,5.74-7.3c0.46-1.06,0.72-2.16,0.96-3.14c0.08-0.33,0.16-0.65,0.25-0.99c0.33-1.31,0.67-2.67,0.85-4.06
					c0.17-1.38,0.14-2.78,0.11-4.13c-0.01-0.61-0.03-1.21-0.02-1.8c0.05-3.72,0.09-7.44,0.13-11.16l0.02-2.32
					c0.1-9.17,0.19-18.66-0.06-28.02c-0.01-0.34,0.07-2.08,0.14-3.75c0.11-2.56,0.25-5.74,0.31-8.38c0.04-1.92,0.06-3.34-0.08-4.39
					c-0.03-1.41-1.03-2.46-2.15-3.2c-0.66-0.44-2.09-1.22-2.87-1.59C103.68,54.84,103.38,54.76,103.09,54.7z"/>
				<path class="st3" d="M279.3,34.46c-5.46,0.22-10.74,0.52-15.29,1.82c-0.88,0.25-1.16,1.1-1.79,3.65c0,0-0.92,2.93-1.31,4.1
					c-0.66,1.98-1.41,4.11-2.29,6.52c-0.89,2.42-1.84,4.96-2.88,7.53c-0.07-0.2-0.13-0.39-0.21-0.63c-0.81-2.4-2.13-6.27-3.26-9.55
					c-0.57-1.65-1.1-3.15-1.5-4.24c-0.28-0.78-0.51-1.39-0.74-1.86l0,0c-0.93-2.03-1.97-2.53-2.96-3.16
					c-0.77-0.49-1.72-0.63-2.28-0.68l-0.01,0c-0.75-0.12-1.9,0.02-3.12,0.2c-0.59,0.09-1.26,0.18-1.79,0.22
					c-1.62,0.11-11.54,1.7-12.18,3.01c-0.11,0.15-0.29,0.59,0.3,1.59c0.61,1.02,1.69,3.32,2.48,5.27c0.17,0.42,0.34,0.85,0.52,1.26
					c1.15,2.77,2.31,5.53,3.47,8.3c2.29,5.46,4.58,10.92,6.88,16.37c1.65,3.94,3.06,7.23,4.52,10.5c-0.36,8.12-0.26,16.18-0.11,23
					l0,0.11c0.05,2.21,0.1,4.49-0.06,6.65c-0.04,0.62-0.04,4.42,0,5.28c0.01,0.16,0.05,0.37,0.14,0.6c0.26,1.33,1.35,4.18,4.56,5.14
					c0.42,0.15,0.9,0.26,1.52,0.29c0.58,0.03,1.18-0.02,1.66-0.03c1.58-0.05,8.22-1.18,8.4-1.21c1.81-0.27,3.19-0.58,4.03-1.18
					c0.45-0.32,0.64-1,0.7-1.56c0.23-2.15,0.06-4.07-0.04-6.32c-0.06-1.27-0.12-2.58-0.12-3.85c0-2.77,0.1-5.47,0.23-8.47
					c0.2-2.99,0.09-6.24-0.01-9.38c-0.07-2.22-0.14-4.33-0.11-6.31c0.37-1.39,0.84-2.45,1.38-3.67c0.21-0.48,0.43-0.97,0.64-1.49
					c3.39-8.92,6.88-17.62,9.53-24.21c1.33-3.29,2.67-6.58,4.02-9.86l0.52-1.27c0.33-0.83,0.67-1.65,1.02-2.47
					c0.1-0.22,0.5-1.48,0.57-1.71c0.59-1.91,0.19-3.15,0.08-3.58c-0.45-1.8-1.78-3.03-2.66-3.9c-0.21-0.21-0.37-0.35-0.54-0.5
					C280.83,34.39,279.3,34.46,279.3,34.46z"/>
				<path class="st3" d="M35.82,90.15c0,0.59,0.26,2.27,2.87,4.29c0.61,0.47,1.72,1.42,2.87,1.47L45,95.98
					c1.47-0.03,2.88-0.14,4.23-0.36c0,0,7.15-0.38,7.23-2.72c0.01-0.35,0.03-0.7,0.05-1.05c0.19-2.98,0.32-5.67,0.1-8.33
					c-0.29-3.49-0.81-6.54-2.36-9.37c-1.13-2.05-4.36-6.48-8.41-9.1c-2.12-1.37-4.87-2.9-8.56-3.47c-0.92-0.14-1.9-0.29-2.93-0.34
					c-3.45-0.15-7.27,0.47-10.49,1.71l-3.03,1.39c-1.96,0.97-4.74,2.56-6.85,4.64l-1.03,1.04c-4.76,4.73-6.38,12.66-5.88,18.42
					c0.04,0.41,0.06,0.83,0.09,1.25l0.01,0.13c0.08,1.31,0.16,2.66,0.49,3.99c0.24,0.97,0.48,1.75,0.77,2.46
					c0.32,0.81,0.73,1.55,1.17,2.26c1.57,2.54,2.85,3.88,4.11,5.4c1.92,2.29,4.36,4.07,6.6,5.7l0.43,0.31
					c1.79,1.3,3.56,2.75,5.26,4.16c2.16,1.77,3.82,2.9,6.14,4.63c2.35,1.75,3.75,4.35,3.58,6.28c-0.27,3.05-2.7,5.19-5.14,6.16
					c-0.6,0.24-1.3,0.28-2.07,0.21c-0.16-0.78-0.22-1.58-0.25-2.1c-0.09-1.26-0.08-2.53-0.07-3.73c0-0.18,0.02-0.39,0.04-0.62
					c0.1-1.11,0.24-2.74-0.66-3.99c-0.09-0.13-0.45-0.47-0.65-0.61c-0.87-0.61-3.17-2.17-4.09-2.78c-0.23-0.16-0.47-0.36-1.15-0.34
					c-1.07,0.02-2.19,0.1-3.29,0.12c-3.39,0.07-6.9,0.15-10.14,1.66c-0.86,0.4-0.99,1.36-1.11,3.63c0,0-0.15,2.82-0.07,3.93
					c0.34,4.44,1,9.17,3.34,13.41c1.96,3.57,4.61,6.17,6.33,7.55c2.49,2,5.55,3.34,8.87,3.9c0.55,0.09,1.12,0.15,1.71,0.18
					c2.3,0.1,4.5-0.31,6.63-0.71l1.02-0.19l1.11-0.2l0.11-0.02c5.84-1.05,11.59-3.51,15.04-8.46c1.25-1.79,2.3-3.63,3.11-5.45
					c0.99-2.22,1.65-4.67,1.97-7.29c0.45-3.76,0.31-7.11-0.43-10.55c-0.25-1.18-1.64-4.39-4.23-7.64
					c-3.13-3.91-7.52-7.17-11.41-9.84c-0.56-0.38-1.12-0.76-1.68-1.13c-0.75-0.5-1.48-0.99-2.18-1.49
					c-0.02-0.02-0.05-0.03-0.07-0.05c-0.03-0.02-0.06-0.04-0.09-0.06c-0.75-0.53-1.47-1.08-2.16-1.67c-1.74-1.5-3.23-3.26-4.43-5.24
					c-0.55-0.91-0.87-1.72-1.06-2.72c-0.36-1.84-0.29-2.61,0.3-3.44c0.76-1.06,2.1-1.74,3.19-2.2c1.33-0.56,3.7-0.59,3.7-0.59
					s0.23,1.67,0.23,2.75C35.99,87.45,35.76,89.75,35.82,90.15z"/>
			</g>
			<g>
				<path class="st3" d="M335.53,31.7l-0.02-0.02c-1.32-1.77-3.97-2.24-5.95-2.33c-0.59-0.03-1.21-0.02-1.84,0.01
					c-1.11,0.06-7.77,0.84-10.36,1.17c-0.41,5.7-0.35,11.6-0.29,17.31c0.03,3.11,0.07,6.33,0.02,9.48
					c-0.14,10.05-0.08,20.25,0.16,30.31c0.26,10.8,0.32,17.28,0.16,20.24c0.79-0.03,1.59-0.12,2.43-0.2
					c0.83-0.09,1.68-0.17,2.55-0.21c0.07,0,0.12-0.01,0.19-0.01c0.01-3.36-0.07-8.38-0.26-15.97c-0.25-10.06-0.3-20.25-0.16-30.29
					c0.04-3.15,0.01-6.38-0.02-9.49c-0.06-5.55-0.12-11.27,0.25-16.8c2.83-0.35,8.84-1.05,9.86-1.11c0.61-0.03,1.22-0.04,1.79-0.01
					c0.8,0.03,1.7,0.14,2.57,0.37c-0.26-1.06-0.59-1.91-1.04-2.37L335.53,31.7z"/>
				<path class="st3" d="M368.65,69.6l-0.02-0.97c-0.05-2.35-0.12-4.7-0.18-7.06c-0.12-3.97-0.24-8.08-0.24-12.1
					c0.03-0.78,0.07-1.56,0.1-2.34c0.14-3.07,0.29-6.25,0.08-9.46c-0.25-3.76-1.38-7.32-2.48-10.77l-0.09-0.3
					c-0.75-2.37-1.79-4.37-3.47-6.7c-1.99-2.76-4.52-4.74-7.29-6.13c0.83,0.78,1.62,1.64,2.33,2.63c1.66,2.3,2.64,4.19,3.38,6.52
					l0.1,0.3c1.08,3.41,2.2,6.94,2.45,10.63c0.21,3.17,0.06,6.33-0.08,9.39c-0.04,0.8-0.08,1.59-0.1,2.33
					c0,4.05,0.12,8.17,0.24,12.22c0.07,2.33,0.14,4.66,0.18,6.99l0.02,0.96c0.03,2.59-0.01,5.22-0.06,7.77
					c-0.06,3.31-0.12,6.72,0,10.08c0.04,1.15-0.02,2.29-0.09,3.4c-0.06,1.02-0.12,2.08-0.08,3.1c0.02,0.61,0.04,1.21,0.07,1.83
					c0.09,2.05,0.17,4.16-0.02,6.28c-0.42,4.51-2.04,9.52-4.57,14.09c-2.33,4.22-5.43,7.91-8.98,10.69
					c-2.03,1.59-4.16,2.84-6.33,3.71c-2.15,0.86-4.48,1.22-6.75,1.58c-0.62,0.1-1.23,0.19-1.84,0.3c-3.28,0.57-6.61,1.13-9.91,1.65
					c-4.55,0.72-9.17,1.4-13.74,2.01c-0.94,0.13-1.9,0.27-2.89,0.42c-3.44,0.52-6.99,1.06-10.42,0.91l0,0
					c-0.34-0.01-0.88,0.02-1.45,0.05c-0.85,0.05-1.81,0.1-2.67,0.06c-0.79-0.03-1.38-0.14-1.85-0.33l-0.56-0.23l-0.19-0.08
					c-0.06,0-0.1-0.01-0.1-0.01s2.1,4.24,5.99,4.94c0.13,0.02,0.29,0.04,0.43,0.05c0.1,0.01,0.19,0.03,0.29,0.04l0-0.01
					c0.16,0.02,0.3,0.04,0.48,0.05c0.88,0.04,1.86-0.01,2.73-0.06c0.56-0.03,1.08-0.06,1.41-0.05l0,0
					c3.48,0.15,7.06-0.39,10.52-0.92c0.97-0.15,1.93-0.29,2.88-0.42c4.57-0.62,9.2-1.29,13.76-2.01c3.3-0.52,6.63-1.08,9.92-1.65
					c0.6-0.11,1.22-0.2,1.84-0.3c2.29-0.36,4.65-0.73,6.86-1.61c2.21-0.88,4.39-2.16,6.46-3.78c3.6-2.82,6.76-6.58,9.12-10.86
					c2.56-4.64,4.21-9.73,4.63-14.32c0.2-2.16,0.11-4.3,0.02-6.36c-0.03-0.61-0.05-1.21-0.07-1.82c-0.03-0.99,0.03-1.99,0.08-3.05
					c0.06-1.11,0.13-2.27,0.09-3.45c-0.11-3.33-0.05-6.75,0-10.04C368.63,74.84,368.68,72.21,368.65,69.6z"/>
			</g>
			<path class="st1" d="M51.4,80.19c-0.24-2.83-0.91-5.6-2.45-8.41c-2.52-4.58-6.79-7.95-11.86-8.94c-0.87-0.17-1.79-0.27-2.73-0.32
				c-3.38-0.15-7.06,0.5-9.98,1.62l-2.97,1.36c-2.4,1.19-4.8,2.72-6.51,4.4l-1.03,1.03c-4.21,4.18-6.05,11.43-5.52,17.42
				c0.15,1.7,0.14,3.5,0.55,5.17c0.19,0.78,0.41,1.54,0.71,2.29c1.61,4.06,5.35,6.84,8.74,9.31c4.1,2.98,7.82,6.33,12.01,9.19
				c1.11,0.76,2.26,1.47,3.27,2.37c2.32,2.06,3.44,5.4,3.37,8.39c-0.09,3.45-2.85,6.06-5.9,7.28c-0.72,0.29-1.49,0.39-2.26,0.35
				c-0.3-0.01-0.6-0.05-0.9-0.09c-0.74-0.12-2.49-0.29-3.09-0.76c-1.71-1.32-2-3.89-2.14-5.84c-0.09-1.3-0.09-2.61-0.07-3.91
				c0.01-0.73,0.27-1.91,0.07-2.76c-0.06-0.27-0.17-0.92-0.86-0.88c-4.29,0.21-8.79-0.19-12.76,1.56c-0.08,0.03-0.31,0.1-0.4,0.43
				c-0.2,0.7-0.23,2.31-0.26,2.62c-0.1,1.13-0.14,2.26-0.05,3.4c0.46,5.97,1.02,12.02,6.11,16.11c2.29,1.84,5.06,2.98,7.89,3.45
				c0.49,0.08,0.97,0.13,1.46,0.15c2.42,0.11,4.86-0.45,7.21-0.87c0.41-0.07,0.81-0.15,1.22-0.22c7.83-1.41,13.46-5.5,16.72-12.79
				c0.95-2.11,1.53-4.38,1.81-6.71c0.4-3.35,1.64-8.98-4.2-16.59c-2.86-3.73-7.1-6.76-10.94-9.4c-2.15-1.48-4.39-2.84-6.37-4.54
				c-1.91-1.65-3.57-3.61-4.87-5.77c-0.67-1.11-1.09-2.16-1.33-3.43c-0.37-1.89-0.49-3.44,0.64-5.02c0.98-1.36,2.5-2.21,3.99-2.85
				c1.1-0.48,2.74-0.85,4.29-0.78c1.39,0.06,2.71,0.47,3.52,1.48c1.81,2.27,1.9,5.94,1.77,8.64c-0.02,0.39-0.39,2.71-0.08,2.95
				c0.6,0.47,1.61,0.62,2.56,0.66c0.59,0.03,1.17,0.01,1.61,0c1.51-0.03,3-0.3,4.48-0.54c0.53-0.08,5.38-0.36,5.41-1.09
				c0.01-0.37,0.03-0.74,0.06-1.11C51.47,85.45,51.62,82.79,51.4,80.19z"/>
			<path class="st1" d="M102.87,55.96c-0.7-0.1-2.2-0.24-3.05-0.28c-0.11,0-0.22-0.01-0.3-0.01c-1.63-0.01-3.33,0.23-4.85,0.58
				c-0.55,0.13-5.45,0.87-5.48,1.59c-0.1,2.32-0.25,4.64-0.27,6.96c-0.17,14.89-0.56,29.81-0.17,44.71
				c0.1,3.69,0.13,7.38-0.12,11.05c-0.2,2.95-3.97,4.67-6.47,5.17c-0.68,0.14-1.42,0.2-2.16,0.17c-1.96-0.09-3.92-0.86-4.85-2.77
				c-1-2.05-0.83-4.51-0.85-6.69c-0.14-14.87,0.81-29.77,0.03-44.65c-0.13-2.47-0.08-4.95-0.14-7.42c-0.03-1.11,0.34-3.62-0.06-4.87
				c-0.03-0.08-0.13-0.33-0.53-0.31c-3.42,0.13-6.55-0.22-9.9,0.72c-0.74,0.21-3.91,0.67-3.76,1.84c0.38,2.91,0.08,5.84-0.02,8.74
				c-0.11,3.16-0.14,6.33-0.14,9.51c0.01,6.34,0.16,12.69,0.16,19.04c0,1.84-0.01,3.68-0.01,5.53c-0.01,4.64-0.25,9.26-0.15,13.9
				c0.09,4.06,0.02,9.14,2.28,12.78c0.49,0.79,1.09,1.49,1.69,2.2c0.8,0.93,1.37,1.71,2.33,2.52c2.21,1.88,4.7,3.06,7.46,3.8
				c0.93,0.25,1.91,0.38,2.91,0.42c1.89,0.08,3.83-0.14,5.58-0.41c2.02-0.31,4.26-0.67,6.29-1.3c0.57-0.18,1.12-0.38,1.64-0.61
				c0.82-0.36,1.56-0.85,2.3-1.35c1.13-0.76,2.41-1.44,3.45-2.3c2-1.66,4.15-4.16,5.19-6.57c0.39-0.9,0.62-1.86,0.85-2.82
				c0.38-1.57,0.85-3.22,1.05-4.82c0.23-1.83,0.05-3.83,0.08-5.69c0.05-3.72,0.09-7.44,0.13-11.16c0.1-10.08,0.24-20.17-0.03-30.26
				c-0.04-1.38,0.76-14.86,0.34-16.69C103.26,56.01,103.02,55.98,102.87,55.96z"/>
			<path class="st1" d="M160.9,114.79c-0.11-11.27-0.25-22.53-0.1-33.79c0.08-6.54,0.28-13.09,0.23-19.64
				c-0.01-0.91,0-9.66-0.13-11.08c-0.02-0.19-0.24-0.22-0.33-0.24c-0.87-0.15-1.77-0.25-2.67-0.29c-2.22-0.1-4.52,0.13-6.86,0.57
				c-1.18,0.23-2.36,0.51-3.54,0.84c-0.07,0.02-0.26,0.07-0.27,0.29c-0.05,2.93-0.03,5.87-0.01,8.8
				c0.05,12.15,0.43,24.33-0.32,36.42c-4.59-8.24-7.89-17.23-11.76-25.74c-1.33-2.91-2.39-5.92-3.81-8.8
				c-0.76-1.54-1.52-3.04-2.1-4.65c-0.23-0.65-1.21-3.54-1.86-3.96c-0.16-0.1-0.41-0.13-0.68-0.15c-0.3-0.01-0.63,0-0.88-0.01
				c-0.05,0-0.1-0.01-0.15-0.01c-3.93-0.13-7.45,0.72-11.03,1.74c-0.27,0.08-0.28,0.19-0.29,0.34c-0.24,5.93-0.25,11.75-0.15,17.69
				c0.1,5.96,0.02,11.9-0.05,17.86c-0.09,7.59-0.13,15.19-0.11,22.79c0.01,3.8,0.04,7.6,0.08,11.4c0.02,1.9,0.04,3.8,0.07,5.7
				c0.02,1.37-0.43,2.94,0.16,4.28c0.11,0.01,0.23,0.01,0.34,0.02c3.96,0.17,10.88-1.25,12.92-1.74c0.31-0.07,0.57-0.51,0.57-0.69
				c0.03-3.8,0.3-7.58,0.29-11.39c-0.01-4.04-0.15-8.08-0.13-12.11c0.02-3.32-0.13-6.66-0.16-9.99c-0.02-1.66-0.03-3.32-0.03-4.97
				c0-1.35-0.13-3.8,0.03-4.9c0.12,0.33,1.26,2.86,1.6,3.74c1.3,3.42,3.26,6.64,4.72,10.01c1.56,3.59,3.07,7.21,4.53,10.84
				c1.3,3.23,2.66,6.44,4.03,9.65c1.08,2.53,2.54,5.12,3.4,7.72c0.04,0.13,0.13,0.36,0.65,0.33c1.22-0.06,2.52-0.04,3.81-0.08
				c3.04-0.01,6.17-0.91,9.35-1.14c0.75-0.05,0.78-0.43,0.84-0.9c0.15-1.27-0.1-3.58-0.1-4.04
				C160.97,121.96,160.93,118.38,160.9,114.79z"/>
			<path class="st1" d="M197.1,105.47c1.96,4.65,3.88,9.31,5.8,13.98c0.64,1.54,1.53,2.98,2.08,4.55c0.04,0.12,0.15,0.32,0.55,0.32
				c2.23,0.01,4.45-0.06,6.67-0.32c0.56-0.06,5.79-1.14,7.11-1.63c0.39-0.15,0.3-0.47,0.3-0.62c0-4.78-0.06-9.53-0.21-14.32
				c-0.47-14.92-0.17-29.75,0.02-44.63c0.05-3.5,0.09-7,0.14-10.5c0.01-0.81,0.08-7.91-0.1-9.35c-0.02-0.16-0.24-0.28-0.33-0.3
				c-0.88-0.15-1.77-0.25-2.68-0.29c-3.33-0.15-6.86,0.43-10.39,1.41c-0.09,0.02-0.26,0.08-0.27,0.32c-0.3,3.84-0.02,7.73,0,11.59
				c0.05,11.22,0.58,23.44-0.12,34.61c-5.01-8.99-8.67-19.74-12.88-29.09c-1.21-2.69-2.44-5.36-3.7-8.03
				c-1.06-2.24-1.64-4.77-3.05-6.83c-0.01-0.02-0.02-0.03-0.03-0.05c-0.03-0.05-0.07-0.08-0.12-0.11c-0.13-0.07-0.23-0.06-0.33-0.07
				c-0.44-0.02-1.11,0.01-1.72-0.02c-3.94-0.13-7.2,0.71-10.79,1.68c-0.05,0.01-0.24,0.1-0.28,0.27c-0.32,1.24-0.09,7.18-0.1,7.92
				c-0.02,2.65-0.01,5.31,0.03,7.97c0.07,5.32,0.08,10.61,0.01,15.93c-0.1,7.59-0.14,15.19-0.14,22.79c0,6.46,0.05,12.92,0.09,19.39
				c0,0.43-0.17,4.4,0.08,5.48c0.04,0.17,0.37,0.28,0.48,0.29c3.9,0.17,10.89-1.27,12.94-1.74c0.58-0.13,0.56-0.41,0.56-0.54
				c0.02-4.87,0.45-9.68,0.35-14.57c-0.19-9.65-0.48-19.31-0.35-28.95c0.12,0.33,1.26,2.86,1.6,3.74
				C191.3,92.29,194.34,98.81,197.1,105.47z"/>
			<path class="st1" d="M279.04,35.77c-4.82,0.19-10.17,0.48-14.63,1.76c-0.37,0.11-0.98,3.01-1.12,3.45
				c-0.38,1.17-0.77,2.34-1.16,3.51c-0.74,2.2-1.51,4.38-2.31,6.55c-1.71,4.66-3.48,9.28-5.58,13.76c0.21-0.45-1.13-2.61-1.36-3.08
				c-0.47-0.97-1.85-4.17-2.07-4.81c-0.48-1.38-5.28-15.68-6.09-17.49c-0.05-0.12-0.29-0.21-0.4-0.22c-1.06-0.05-2.96,0.37-4.3,0.46
				c-1.79,0.12-3.54,0.44-5.3,0.73c-0.4,0.06-4.48,0.88-5.58,1.39c-0.2,0.09-0.19,0.35-0.15,0.41c1.33,2.1,2.23,4.59,3.18,6.86
				c1.15,2.77,2.31,5.53,3.47,8.3c2.29,5.46,4.58,10.91,6.87,16.37c1.51,3.6,3.04,7.19,4.64,10.76c-0.36,7.76-0.3,15.44-0.13,23.22
				c0.05,2.27,0.1,4.62-0.05,6.88c-0.04,0.53-0.04,4.24,0,5.12c0.02,0.48,0.66,0.64,1.42,0.67c0.78,0.03,1.68-0.06,2.2-0.06
				c0,0,5.3-1,7.25-1.33c0.52-0.06,2.28-0.04,3.04-0.32c0.28-0.1,0.22-0.26,0.23-0.34c0.3-3.1-0.14-6.64-0.14-10.13
				c0-2.88,0.11-5.78,0.23-8.55c0.34-5.11-0.23-10.92-0.12-15.89c0.57-2.25,1.37-3.72,2.17-5.65c3.08-8.11,6.29-16.16,9.53-24.2
				c1.33-3.3,2.67-6.59,4.02-9.87c0.52-1.26,1.01-2.52,1.55-3.77c0.1-0.23,0.2-0.46,0.3-0.7c0.41-0.93,0.96-2.33,1.12-3.4
				C279.86,35.7,279.16,35.76,279.04,35.77z"/>
			<g>
				<path class="st4" d="M294.19,132.18c1.37-0.02,2.81-0.13,3.76-0.1c4.29,0.19,8.87-0.75,13.08-1.32
					c4.58-0.62,9.15-1.29,13.71-2.01c3.3-0.52,6.6-1.07,9.88-1.65c2.74-0.48,5.73-0.76,8.31-1.8c2.16-0.86,4.16-2.08,5.99-3.51
					c3.53-2.76,6.44-6.33,8.62-10.27c2.22-4.02,3.96-8.87,4.39-13.53c0.24-2.63,0.02-5.28-0.05-7.93c-0.06-2.18,0.24-4.33,0.17-6.49
					c-0.2-5.96,0.13-11.91,0.06-17.88c0-0.32-0.01-0.64-0.02-0.95c-0.13-6.41-0.42-12.83-0.42-19.24c0.15-3.87,0.45-7.73,0.19-11.62
					c-0.24-3.61-1.38-7.11-2.48-10.57c-0.74-2.33-1.73-4.11-3.16-6.08c-3.66-5.07-9.66-7.41-15.64-7.93
					c-0.33-0.03-0.66-0.05-0.98-0.06c-0.42-0.02-0.84-0.03-1.26-0.04c-3.56-0.08-7.05,0.02-10.6,0.16c-4.75,0.2-9.49,0.5-14.21,0.91
					c-1.92,0.17-15.98,0.13-20.52,1.66c-0.89,0.3-1.65,1.36-1.72,2.43c-0.28,4.36-0.2,8.73-0.3,13.1c-0.11,4.66,0.2,9.4,0.27,14.08
					c0.16,10.13,0.29,20.26,0.37,30.39c0.08,10.13-1.1,47.73-0.24,57.73C291.55,131.61,292.39,132.2,294.19,132.18z M315.99,29.22
					c0-0.05,10.2-1.26,11.59-1.33c0.62-0.03,1.29-0.04,1.98-0.01c2.62,0.11,5.5,0.8,7.1,2.95c2.54,2.67,2.29,12.95,2.21,18.35
					c-0.11,7.78-0.12,15.56-0.01,23.35c0.06,4.65,0.17,9.31,0.31,13.96c0.13,4.33,0.54,7.76-0.17,11.95
					c-0.14,0.81-0.32,1.63-0.56,2.44c-0.33,1.14-0.75,2.28-1.49,3.2c-3.13,3.85-9.74,4.64-14.42,4.86c-2.15,0.1-4.36,0.52-6.52,0.43
					c-0.1,0-0.1-0.31-0.07-0.82c0.26-3.73-0.11-19.33-0.14-20.93c-0.25-10.13-0.3-20.26-0.17-30.37
					C315.76,47.95,315.22,38.43,315.99,29.22z"/>
			</g>
		</g>
	</g>
	<g>
		<g>
			<path class="st4" d="M94.12,285.28l0.1-0.54c-7.51,1.17-14.96,2.41-22.36,3.72l-1.45,3.43c7.37-1.31,14.81-2.56,22.29-3.74
				L94.12,285.28z"/>
		</g>
		<g>
			<path class="st4" d="M38.76,297.98c7.1-1.48,14.28-2.89,21.51-4.25l-0.17-3.15c-7.32,1.37-14.58,2.8-21.76,4.29L38.76,297.98z"/>
		</g>
	</g>
	<g>
		<path class="st4" d="M122.47,280.79l0.03-0.14c-7.97,1.06-15.9,2.18-23.77,3.39l-0.63,3.26c16.64-2.55,33.53-4.79,50.58-6.69
			c0.28-1,0.58-2,0.92-2.99L122.47,280.79z"/>
	</g>
	<g>
		<path class="st4" d="M153.28,280.1c8.03-0.87,16.1-1.66,24.2-2.37c0.43-1.12,0.89-2.22,1.4-3.26c-8.18,0.71-16.33,1.5-24.45,2.37
			C154.01,277.91,153.62,279,153.28,280.1z"/>
	</g>
	<g>
		<g>
			<path class="st4" d="M238.96,269.81l-1.56,3.26c6.72-0.55,13.38-1.11,19.96-1.68l1.37-3.26
				C252.2,268.71,245.61,269.26,238.96,269.81z"/>
		</g>
		<g>
			<path class="st4" d="M283.91,265.83c-6.71,0.64-13.48,1.26-20.34,1.87l0.12,3.13c6.94-0.62,13.79-1.25,20.57-1.89L283.91,265.83z
				"/>
		</g>
	</g>
	<g>
		<path class="st4" d="M340.74,261.88c-0.86-0.63-1.8-1.19-2.79-1.69c-15.65,1.79-31.8,3.5-48.44,5.11
			c0.13,1.09,0.32,2.12,0.58,3.08c17.85-1.73,35.14-3.57,51.85-5.51C341.56,262.52,341.16,262.19,340.74,261.88z"/>
	</g>
	<g>
		<path class="st4" d="M45.05,344.32c6.06-5.17,12.62-10.17,19.81-14.94c3.47-2.3,7.03-4.49,10.68-6.6l5.63-11.37
			c-14.3,7.33-26.53,15.6-37.28,24.38L45.05,344.32z"/>
	</g>
	<g>
		<path class="st4" d="M94.65,305.07l-1.69,8.74c7.92-3.63,16.23-6.86,24.95-9.72l0.52-2.69l14.06-1.65
			c4.52-1.21,9.14-2.33,13.87-3.35c0.04-2.55,0.24-5.08,0.58-7.58C127.03,292.99,109.78,298.53,94.65,305.07z"/>
	</g>
	<g>
		<g>
			<path class="st4" d="M151.41,287.93c-0.41,2.49-0.66,5.01-0.74,7.58c7.81-1.58,15.89-2.92,24.27-4.02c0-2.55,0.23-5.03,0.69-7.44
				C167.15,285.12,159.09,286.43,151.41,287.93z"/>
		</g>
		<g>
			<path class="st4" d="M199.77,281.67c-1.08,0.08-2.14,0.17-3.21,0.25l-1.4,7.42c1.7-0.14,3.41-0.27,5.12-0.39
				c8.67-0.62,17.23-1.26,25.69-1.92l3.63-7.6C219.89,280.2,209.95,280.94,199.77,281.67z"/>
		</g>
	</g>
	<g>
		<g>
			<path class="st4" d="M234.55,279.03l-3.63,7.6c6.99-0.55,13.92-1.12,20.76-1.7l3.18-7.59
				C248.21,277.92,241.43,278.48,234.55,279.03z"/>
		</g>
		<g>
			<path class="st4" d="M284.89,274.62c-6.86,0.65-13.85,1.3-20.98,1.93l0.28,7.29c7.25-0.64,14.42-1.3,21.5-1.98L284.89,274.62z"/>
		</g>
	</g>
	<g>
		<path class="st4" d="M294.15,275.31c2.27,2.08,5.4,3.68,9.35,4.8c14.93-1.51,29.47-3.1,43.59-4.75c-0.02-0.27-0.03-0.54-0.05-0.82
			c-0.2-2.44-0.68-4.55-1.42-6.35c-16.67,1.95-34.27,3.84-52.82,5.66C293.22,274.37,293.66,274.87,294.15,275.31z"/>
	</g>
	<g>
		<path class="st4" d="M146.76,330.99l1.83-9.48c-13.45,7.11-17.8,13.24-18.58,14.48l11.5-1.35
			C142.91,333.54,144.64,332.31,146.76,330.99z"/>
	</g>
	<g>
		<path class="st4" d="M219.04,301.57c-8.53,1.24-16.27,2.63-23.29,4.13c-2.26,1.05-4.54,1.72-6.83,1.98
			c-0.77,0.09-1.49,0.11-2.2,0.09c-13.04,3.23-23.2,6.81-31.07,10.31c1.2,2.02,2.58,3.81,4.15,5.37c0.19,0.19,0.39,0.37,0.59,0.55
			c11.97-5.11,29.49-10.48,54.85-14.48L219.04,301.57z"/>
	</g>
	<g>
		<path class="st4" d="M250.71,298.07c-9.58,0.76-18.42,1.7-26.57,2.79l-3.76,7.88c7.09-1.02,14.76-1.94,23.04-2.72l0.7-1.67
			l20.58-2.41l0.11,2.12c4.98-0.53,10.22-1.16,15.69-1.87l4.05-7.89C272.02,296.01,260.65,297.28,250.71,298.07z"/>
	</g>
	<g>
		<path class="st4" d="M344.63,291.89c0.14-0.32,0.28-0.63,0.41-0.96c0.84-2.12,1.43-4.42,1.78-6.86
			c-8.53,1.6-16.83,3.08-24.87,4.45c-0.13,0.55-0.35,1.09-0.65,1.63c-0.62,1.09-2.25,1.89-4.88,2.41c-2.79,0.56-5.49,0.68-8.12,0.37
			c-2.24-0.27-4.29-0.67-6.18-1.19c-4.28,0.66-8.47,1.28-12.55,1.86l-4.07,7.92C303.25,299.12,323.23,295.85,344.63,291.89z"/>
	</g>
</g>
<g id="CONTEST">
	<path class="st1" d="M52.81,374.55c-1.29,0.15-2.43,0.03-3.42-0.36c-0.99-0.39-1.83-0.96-2.53-1.73c-0.7-0.76-1.22-1.66-1.58-2.7
		c-0.36-1.04-0.54-2.14-0.54-3.31c0-1.47,0.32-2.97,0.97-4.52c0.64-1.54,1.54-2.97,2.68-4.29c1.14-1.31,2.49-2.43,4.04-3.36
		c1.56-0.93,3.26-1.5,5.1-1.71c1.94-0.23,3.55,0.01,4.82,0.7s2.1,1.71,2.5,3.05l-5.09,3.75c-0.08-0.51-0.23-0.91-0.46-1.22
		c-0.23-0.31-0.5-0.55-0.83-0.71c-0.33-0.16-0.68-0.26-1.06-0.29c-0.38-0.03-0.74-0.03-1.1,0.01c-0.91,0.11-1.72,0.42-2.42,0.94
		s-1.29,1.14-1.77,1.87c-0.48,0.73-0.84,1.51-1.09,2.34c-0.25,0.83-0.37,1.62-0.37,2.35c0,0.58,0.07,1.12,0.21,1.63
		c0.14,0.51,0.35,0.94,0.62,1.29c0.28,0.35,0.62,0.62,1.04,0.8c0.42,0.18,0.91,0.24,1.49,0.17c0.36-0.04,0.74-0.13,1.15-0.27
		c0.41-0.14,0.8-0.33,1.19-0.59c0.39-0.25,0.75-0.56,1.1-0.93c0.35-0.37,0.65-0.81,0.91-1.31l4.14,2.34
		c-0.46,0.83-1.06,1.59-1.8,2.29c-0.74,0.7-1.56,1.31-2.44,1.83c-0.88,0.52-1.8,0.94-2.75,1.27
		C54.57,374.24,53.67,374.45,52.81,374.55z"/>
	<path class="st1" d="M72.39,372.26c-1.31,0.15-2.47,0.04-3.5-0.33s-1.88-0.93-2.57-1.66c-0.69-0.73-1.22-1.61-1.58-2.64
		c-0.36-1.03-0.54-2.12-0.54-3.27c0-1.61,0.35-3.2,1.04-4.79c0.69-1.59,1.63-3.04,2.81-4.35s2.55-2.41,4.11-3.29
		s3.19-1.43,4.89-1.63c1.31-0.15,2.47-0.04,3.48,0.34c1.01,0.38,1.86,0.94,2.54,1.68c0.68,0.74,1.2,1.62,1.56,2.64
		c0.36,1.02,0.54,2.1,0.54,3.25c0,1.59-0.35,3.18-1.04,4.76c-0.69,1.59-1.63,3.04-2.8,4.34c-1.17,1.31-2.53,2.41-4.08,3.3
		C75.72,371.51,74.1,372.06,72.39,372.26z M73.52,366.98c0.95-0.11,1.78-0.43,2.5-0.96c0.71-0.53,1.31-1.17,1.8-1.91
		c0.48-0.74,0.85-1.54,1.08-2.39c0.24-0.85,0.36-1.66,0.36-2.44c0-0.55-0.06-1.07-0.19-1.55s-0.33-0.89-0.6-1.24
		c-0.27-0.35-0.62-0.6-1.06-0.77s-0.95-0.22-1.55-0.15c-0.93,0.11-1.75,0.42-2.47,0.94c-0.71,0.52-1.31,1.15-1.79,1.88
		c-0.48,0.73-0.84,1.52-1.09,2.37c-0.25,0.85-0.37,1.67-0.37,2.44c0,0.56,0.06,1.07,0.19,1.55c0.13,0.48,0.33,0.9,0.6,1.25
		s0.61,0.62,1.04,0.8C72.41,367,72.93,367.05,73.52,366.98z"/>
	<path class="st1" d="M89.74,348.92l4.52-0.53l5.36,10.11l2.26-11l5.8-0.68l-4.49,21.65l-4.58,0.54l-5.36-9.76l-2.2,10.64l-5.8,0.68
		L89.74,348.92z"/>
	<path class="st1" d="M114.46,351.08l-5.68,0.67l1.07-5.18l17.14-2.01l-1.07,5.18l-5.65,0.66l-3.42,16.47l-5.8,0.68L114.46,351.08z"
		/>
	<path class="st1" d="M129.16,344.3l14.1-1.65l-1.07,5.18l-8.3,0.97l-0.62,3.05l7.08-0.83l-1.01,4.82l-7.08,0.83l-0.71,3.42l8.57-1
		l-1.07,5.18l-14.37,1.69L129.16,344.3z"/>
	<path class="st1" d="M149.15,363.35c-0.73,0.09-1.48,0.11-2.23,0.08c-0.75-0.03-1.49-0.11-2.2-0.25c-0.71-0.13-1.4-0.31-2.05-0.53
		s-1.25-0.49-1.79-0.8l3.57-5.48c0.14,0.08,0.39,0.23,0.74,0.45s0.8,0.42,1.32,0.62c0.52,0.2,1.12,0.36,1.77,0.48
		c0.65,0.12,1.34,0.14,2.05,0.06c0.67-0.08,1.1-0.24,1.28-0.49s0.27-0.51,0.27-0.79c0-0.26-0.11-0.47-0.33-0.63
		c-0.22-0.16-0.51-0.3-0.86-0.42c-0.36-0.12-0.77-0.22-1.24-0.32c-0.46-0.09-0.95-0.21-1.44-0.35c-1.31-0.36-2.29-0.87-2.93-1.53
		c-0.65-0.66-0.97-1.55-0.97-2.68c0-1.33,0.27-2.55,0.8-3.65c0.54-1.1,1.24-2.06,2.11-2.88s1.86-1.48,2.96-1.98
		c1.1-0.5,2.22-0.83,3.35-0.96c0.73-0.09,1.44-0.09,2.13-0.03c0.68,0.07,1.33,0.18,1.93,0.34c0.6,0.16,1.17,0.34,1.68,0.55
		c0.51,0.21,0.97,0.41,1.37,0.6l-3.51,5.2c-0.02-0.02-0.17-0.11-0.46-0.29c-0.29-0.17-0.66-0.35-1.12-0.54s-0.97-0.34-1.55-0.46
		c-0.58-0.12-1.16-0.15-1.76-0.08c-0.44,0.05-0.81,0.19-1.12,0.43s-0.46,0.57-0.46,1.01c0,0.46,0.29,0.77,0.86,0.94
		s1.34,0.37,2.29,0.59c0.71,0.19,1.36,0.41,1.95,0.63c0.58,0.23,1.09,0.52,1.52,0.86c0.43,0.35,0.75,0.77,0.98,1.28
		c0.23,0.51,0.34,1.13,0.34,1.86c0,1.51-0.28,2.81-0.85,3.89c-0.57,1.09-1.29,2-2.19,2.74c-0.89,0.74-1.89,1.31-2.99,1.72
		C151.31,362.96,150.22,363.22,149.15,363.35z"/>
	<path class="st1" d="M167.15,344.9l-5.68,0.67l1.07-5.18l17.14-2.01l-1.07,5.18l-5.65,0.66l-3.42,16.47l-5.8,0.68L167.15,344.9z"/>
</g>
<g>
	<path class="st1" d="M378.62,118.33c4.22,0,7.58,3.32,7.58,7.41c0,4.14-3.36,7.46-7.63,7.46s-7.67-3.32-7.67-7.46
		c0-4.09,3.41-7.41,7.67-7.41H378.62z M378.49,120.18c-3.02,0-5.3,2.46-5.3,5.6c0,3.06,2.28,5.56,5.39,5.56
		c3.1,0.04,5.39-2.5,5.39-5.6c0-3.1-2.28-5.56-5.43-5.56H378.49z M377.62,129.27h-2.11v-6.85c0.47-0.09,1.59-0.26,3.02-0.26
		c1.55,0,2.24,0.21,2.76,0.56c0.43,0.3,0.73,0.82,0.73,1.51c0,0.69-0.65,1.29-1.59,1.55v0.09c0.78,0.22,1.21,0.78,1.42,1.77
		c0.22,0.99,0.35,1.38,0.47,1.64h-2.37c-0.22-0.26-0.35-0.86-0.47-1.46c-0.13-0.69-0.47-1.04-1.16-1.04h-0.69V129.27z
		 M377.71,125.35h0.6c0.78,0,1.29-0.34,1.29-0.82c0-0.56-0.47-0.86-1.21-0.86c-0.26,0-0.52,0.04-0.69,0.04V125.35z"/>
</g>
</svg>
